PathFileType	3	(X/Y/Z)	D:\Jess\PFP\Labelled\PA11\20250805\SRRun01.trc
DataRate	CameraRate	NumFrames	NumMarkers	Units	OrigDataRate	OrigDataStartFrame	OrigNumFrames
250.0	250.0	4	33	mm	250.0	36875	2501
Frame#	Time	C7			T10			CLAV			LSHO			RSHO			LASIS			RASIS			LPSIS			RPSIS			LILCR			RILCR			LGTR			LTHI			LLTHI			LLEP			LPSH			LLSH			LDSH			LLMAL			LTOE			L5TH			LHEE			RGTR			RTHI			RLTHI			RLEP			RPSH			RLSH			RDSH			RLMAL			RTOE			R5TH			RHEE			
		X1	Y1	Z1	X2	Y2	Z2	X3	Y3	Z3	X4	Y4	Z4	X5	Y5	Z5	X6	Y6	Z6	X7	Y7	Z7	X8	Y8	Z8	X9	Y9	Z9	X10	Y10	Z10	X11	Y11	Z11	X12	Y12	Z12	X13	Y13	Z13	X14	Y14	Z14	X15	Y15	Z15	X16	Y16	Z16	X17	Y17	Z17	X18	Y18	Z18	X19	Y19	Z19	X20	Y20	Z20	X21	Y21	Z21	X22	Y22	Z22	X23	Y23	Z23	X24	Y24	Z24	X25	Y25	Z25	X26	Y26	Z26	X27	Y27	Z27	X28	Y28	Z28	X29	Y29	Z29	X30	Y30	Z30	X31	Y31	Z31	X32	Y32	Z32	X33	Y33	Z33	

1876	147.496	1015.107031508626	1493.760444962613	-360.575348172612	916.3198994762016	1276.380463119705	-319.2056983533865	1134.39884059022	1369.485148522646	-384.4673237372059	1055.343151910805	1447.789189747843	-521.8267765472093	1119.034788568242	1455.830964971484	-215.907592281297	1078.02215937104	1028.452317947126	-496.9202852240995	1107.360177027526	993.1019858636964	-239.6280345009785	886.6157243810845	1038.613690827054	-356.3650721603549	888.8264176589183	1036.285659875265	-321.7677521026473	996.7236706969663	1092.614464069984	-524.7243492200103	1044.644489486671	1073.52332813953	-186.5390681911514	1003.563277302252	927.370584959075	-573.9361699006389	1166.527540574055	768.1447531564446	-494.919443341461	1075.185230438699	628.6393060638107	-521.2561909999367	1100.059878144759	507.2848918664651	-498.0212256315263	1164.988114217653	439.9246323705515	-432.6535256040118	1053.090891809638	302.4080469197725	-478.4028062332564	1081.74756601249	184.4945420934384	-394.7728431737095	990.6080316934106	105.2498450575107	-414.7303401994728	1145.806804024899	63.20740899044444	-415.83257036301	1108.674697701249	38.01038565891794	-460.6604630716937	925.5956775873725	80.56228139145689	-357.0665263724538	1023.916290277788	902.7091751061456	-145.9503257912735	1153.901371103105	705.7698845202949	-252.4027062250002	1045.409323760988	596.9986961764014	-176.9316036435121	1038.779886287806	461.7390696687813	-187.287011247606	1021.11270844032	381.0240546057389	-237.7502610712729	847.7687268796391	385.3079993366192	-185.8605714497323	791.0113551615999	278.8561183254278	-233.7976223095695	667.2750251055843	290.1074066610078	-216.4366100424684	674.0359187501413	133.2063573199714	-194.8618547620205	628.4932707736452	165.0386767907546	-171.0535310459474	621.0630482383743	332.6138131027216	-287.1623130924668	
1877	147.5	1016.009470503039	1493.304951318451	-361.4156653669389	915.6712488274549	1276.204724044015	-320.1432359023768	1134.68938157196	1367.450972440252	-384.0620011459847	1057.623140058804	1446.006768098523	-522.0797867804711	1118.806714330969	1454.443536461001	-215.8057950966707	1076.413792428924	1028.0282631236	-497.9414491225505	1106.232347410173	991.8602925096333	-239.7504387422219	885.4612729287253	1037.498904668335	-354.7848996392753	887.4109695261445	1034.681989849651	-320.3629578225201	994.2275227126747	1092.462994616277	-524.5812462733711	1042.829931257621	1072.00958928704	-186.5042959530144	1001.320916524579	927.3185192728869	-573.7072893587832	1164.124351607422	767.1593437761179	-495.7312697513292	1072.694563717737	627.6881273057892	-521.2030693006278	1097.229880419553	506.3607603728249	-497.8115391400321	1160.65719323649	438.5742677498313	-432.3004525151696	1047.075494707059	302.0941585116726	-478.3543879246492	1073.620174822446	183.8965202685268	-394.7180881793039	981.3994779620728	105.7509438421526	-414.7648773203757	1136.168049130657	63.03109539228753	-415.9743850870988	1098.938088072149	38.02573737146028	-460.8019989453491	915.9703109654124	81.05424731558959	-357.2381558541666	1024.586419767185	900.6811577272761	-146.008000652034	1156.689774149393	706.5826283218328	-252.0609010429688	1050.162439636261	596.6645732187601	-176.1871005420695	1045.793910420194	461.4748344922647	-186.6675450996337	1028.934785669751	380.9194899564445	-237.160629412634	855.673405085568	384.7178102099254	-185.0182253607547	798.9206039212415	278.4661243133359	-233.1547285007178	675.1522660667645	289.4614184806859	-215.6098724818507	683.5043351103258	132.6957681059589	-193.9307798740314	637.8457365833475	164.1631346407389	-169.7506671610942	627.9726786295861	331.4560438421184	-286.0748803193503	
1878	147.504	1016.839143828625	1492.973037791277	-362.2259273778884	915.0217266966288	1276.178288258431	-321.1049760250291	1134.945843253921	1365.66359971981	-383.5816608857264	1059.994204926449	1444.48702344468	-522.2057177744724	1118.431447725381	1453.315422213953	-215.7204825246515	1074.920380049567	1027.808073908183	-498.832128444648	1105.086669556363	991.0586346301457	-239.762077847118	884.4197843268828	1036.786385679023	-353.345134516996	886.1389135104525	1033.527443386309	-319.1073260740056	991.8773609557696	1092.550478651399	-524.4294345777404	1040.887824681555	1070.905330430288	-186.4422453274994	999.2432570668162	927.3438290135235	-573.4503166920952	1161.596141713469	766.0845975572696	-496.3046400915677	1070.144820485641	626.7430587417003	-521.0918689349287	1094.079008051626	505.3843599655845	-497.5928241681319	1155.963306668772	437.0925626547057	-432.1279038423573	1040.699090630153	301.6886911721101	-478.2843795337724	1065.324635406853	183.264374306446	-394.7294931766453	972.1071741055821	106.1878844167729	-414.8499659935192	1126.467631392331	62.84665432247231	-416.1232473070417	1089.154682120743	37.99706961511897	-460.9427653128932	906.2718063343533	81.50706505637358	-357.4352818123286	1025.113979612683	899.1649278155135	-146.0436133526517	1159.440494668547	707.6420813421868	-251.843076232361	1054.899355102944	596.5921446523208	-175.5227281881723	1052.919523884098	461.4591279059667	-186.1290063583277	1036.788923749449	381.0683875291984	-236.7102955121633	863.692292669619	384.2275471280844	-184.2478453936479	807.0325183137006	278.076227264773	-232.5743480863945	683.2146960025293	288.6301978856763	-214.809140956746	693.3891790938487	132.0259513631579	-193.0931938583074	647.5765622208808	163.0505808190846	-168.520509138553	634.9970807634339	330.0563408791307	-284.9839006409875	
1879	147.508	1017.582642661602	1492.767483636644	-363.0097683179818	914.3822190027172	1276.288014752994	-322.0984207544377	1135.169451139375	1364.141111310882	-383.0243565735069	1062.440298278272	1443.248129362104	-522.2110051499592	1117.893495781797	1452.461892645938	-215.6355901222881	1073.567305478231	1027.765563002394	-499.5768405467963	1103.934433908791	990.6976787619813	-239.6595771357624	883.4839236191772	1036.447031477977	-352.0801188274578	885.0054821024418	1032.799560001374	-318.0309284200009	989.7189221949827	1092.836824029255	-524.273305644303	1038.848071665846	1070.212582759747	-186.3495676701758	997.3438587050061	927.4221260337616	-573.1744377468551	1158.958036157405	764.9091994294032	-496.6371828963337	1067.50758855643	625.8106551668626	-520.9223289800721	1090.566557927928	504.3604038731638	-497.3618203536383	1150.901736909089	435.4801409308473	-432.1240767458144	1033.971929420371	301.1980540193778	-478.1843346897787	1056.868518703924	182.6014949930313	-394.7909182587366	962.7334723800822	106.5633860392168	-414.9734360368064	1116.708552469264	62.64756787741275	-416.2696893825071	1079.325636524831	37.92853648467142	-461.0793431077539	896.5011812303705	81.92053725204566	-357.6504648012021	1025.475613737641	898.15232233404	-146.0576889029127	1162.15251612292	708.9395967124384	-251.7541099798969	1059.621524043126	596.7783296305112	-174.9419816319044	1060.143653036026	461.6912713577974	-185.6703512296199	1044.653737412086	381.4743004677381	-236.3890109055955	871.8064355909344	383.8348361858465	-183.5501821141553	815.3312595375857	277.6829069778559	-232.0549994262027	691.4482638658023	287.6095574515762	-214.0360683177861	703.6805234870443	131.2027515145174	-192.3421347874204	657.6756636427078	161.7053998009668	-167.3635923136069	642.1303088902572	328.4024444408951	-283.8958154992662	
